<?xml version="1.0" encoding="utf-8"?>
<!-- Generator: Adobe Illustrator 23.0.3, SVG Export Plug-In . SVG Version: 6.00 Build 0)  -->
<svg version="1.1" id="Layer_1" xmlns="http://www.w3.org/2000/svg" xmlns:xlink="http://www.w3.org/1999/xlink" x="0px" y="0px"
	 viewBox="0 0 2500 2500" style="enable-background:new 0 0 2500 2500;" xml:space="preserve">
<style type="text/css">
	.st0{fill:#06C49C;}
	.st1{clip-path:url(#SVGID_3_);}
	.st2{clip-path:url(#SVGID_4_);fill:url(#SVGID_5_);}
	.st3{display:none;opacity:0.14;fill:url(#SVGID_6_);enable-background:new    ;}
	.st4{fill:#E6A665;}
	.st5{fill:#F7D6B4;}
	.st6{opacity:0.34;fill:#A86420;enable-background:new    ;}
	.st7{opacity:0.55;fill:#E6A665;enable-background:new    ;}
	.st8{fill:#393F40;}
	.st9{fill:#456469;}
	.st10{opacity:0.08;}
	.st11{fill:#FFFFFF;}
	.st12{opacity:0.77;fill:#4F6363;enable-background:new    ;}
	.st13{opacity:0.12;}
	.st14{fill:#F1F1F2;}
	.st15{fill:#FCEEE3;}
	.st16{fill:#F5F5EB;}
	.st17{opacity:0.18;clip-path:url(#SVGID_8_);enable-background:new    ;}
	.st18{fill:#F73C57;}
	.st19{fill:none;stroke:#FF6E83;stroke-width:32.3844;stroke-linecap:round;stroke-miterlimit:10;}
	.st20{fill:#9AD74B;}
</style>
<g>
	<rect class="st0" width="2500" height="2500"/>
</g>
<g>
	<g>
		<g>
			<defs>
				<polygon id="SVGID_1_" points="-17,1 -16,1 -17,2 				"/>
			</defs>
			<defs>
				<polygon id="SVGID_2_" points="-19,-1 -20,-1 -19,-2 				"/>
			</defs>
			<clipPath id="SVGID_3_">
				<use xlink:href="#SVGID_1_"  style="overflow:visible;"/>
			</clipPath>
			<clipPath id="SVGID_4_" class="st1">
				<use xlink:href="#SVGID_2_"  style="overflow:visible;"/>
			</clipPath>
			
				<linearGradient id="SVGID_5_" gradientUnits="userSpaceOnUse" x1="676.0941" y1="1183.0126" x2="2456.2461" y2="390.1809" gradientTransform="matrix(1 0 0 -1 0 2500)">
				<stop  offset="0.3602" style="stop-color:#FFFFFF"/>
				<stop  offset="1" style="stop-color:#000000"/>
			</linearGradient>
			<polygon class="st2" points="2581.36,2499.74 1815.37,703.85 643.18,2008.49 815.78,2499.74 			"/>
		</g>
	</g>
	
		<linearGradient id="SVGID_6_" gradientUnits="userSpaceOnUse" x1="965.4296" y1="1145.5513" x2="2662.8169" y2="389.5809" gradientTransform="matrix(1 0 0 -1 0 2500)">
		<stop  offset="0.3602" style="stop-color:#000000"/>
		<stop  offset="0.7946" style="stop-color:#231F20"/>
		<stop  offset="1" style="stop-color:#000000"/>
	</linearGradient>
	<polygon class="st3" points="2481.07,2264.62 1503.23,385 643.18,2008.49 822.45,2499.74 2481.07,2499.74 	"/>
	<g>
		<g>
			<path class="st4" d="M715.81,1432.69c0,0,235.82-391.64,259.8-373.33s-6.42,438.6-6.42,438.6l-224.59,68.07L715.81,1432.69z"/>
			<polygon class="st5" points="1175.07,2226.05 1319.64,2053.94 1627.54,1657.8 1733.13,1471 1016.8,1438.94 643.18,2018.94 
				384.06,2500 1054.84,2500 			"/>
		</g>
		<path class="st5" d="M1705.34,676.87l-90.26,84.6c-40.93,38.37-105.22,36.28-143.58-4.65l0,0
			c-38.37-40.93-36.28-105.22,4.65-143.58l90.26-84.6c40.93-38.37,105.22-36.28,143.58,4.65l0,0
			C1748.36,574.22,1746.28,638.5,1705.34,676.87z"/>
		<polygon class="st6" points="1627.54,1657.8 1733.13,1471 1551.8,1463.54 		"/>
		<path class="st7" d="M901.48,1759.9l452.67,69.53c44.15,6.78,74.66,47.78,68.48,92.01l0,0l139.97-180.08L901.48,1759.9z"/>
	</g>
	<g>
		<path class="st8" d="M1559.35,1783.97H890.79c-45,0-81.48-36.48-81.48-81.48V360.36c0-45,36.48-81.48,81.48-81.48h668.56
			c45,0,81.48,36.48,81.48,81.48v1342.12C1640.83,1747.48,1604.35,1783.97,1559.35,1783.97z"/>
		<path class="st9" d="M1562.04,1750.82H888.1c-22.52,0-40.78-18.26-40.78-40.78V357.31c0-22.52,18.26-40.78,40.78-40.78h673.95
			c22.52,0,40.78,18.26,40.78,40.78v1352.73C1602.82,1732.57,1584.57,1750.82,1562.04,1750.82z"/>
		<g class="st10">
			<path class="st11" d="M1602.82,688.63V357.31c0-22.52-18.26-40.78-40.78-40.78h-61.45L847.32,1616.18v93.86
				c0,22.52,18.26,40.78,40.78,40.78h180.81L1602.82,688.63z"/>
			<polygon class="st11" points="847.32,1393 847.32,1530.84 1457.7,316.53 1388.41,316.53 			"/>
			<polygon class="st11" points="1602.82,1133.26 1602.82,775.99 1112.82,1750.82 1292.4,1750.82 			"/>
		</g>
		<path class="st8" d="M1361.14,382.04h-273.29c-13.74,0-24.88-11.14-24.88-24.88V283.3h323.05v73.86
			C1386.02,370.9,1374.88,382.04,1361.14,382.04z"/>
		<path class="st12" d="M1294.91,346.27l-139.67,0.69c-7.14,0.03-12.93-5.74-12.93-12.89l0,0c0-7.15,5.78-12.98,12.92-13.01
			l139.68-0.68c7.14-0.03,12.93,5.74,12.93,12.89l0,0C1307.83,340.41,1302.05,346.24,1294.91,346.27z"/>
		<g class="st13">
			<path class="st14" d="M960.14,370.23h-62.39c-7.79,0-14.1-6.31-14.1-14.1l0,0c0-7.79,6.31-14.1,14.1-14.1h62.39
				c7.79,0,14.1,6.31,14.1,14.1l0,0C974.24,363.92,967.93,370.23,960.14,370.23z"/>
			<path class="st14" d="M1019.18,370.23H997.9c-7.79,0-14.1-6.31-14.1-14.1l0,0c0-7.79,6.31-14.1,14.1-14.1h21.28
				c7.79,0,14.1,6.31,14.1,14.1l0,0C1033.28,363.92,1026.97,370.23,1019.18,370.23z"/>
			<path class="st14" d="M1558.72,370.23h-124.77c-7.79,0-14.1-6.31-14.1-14.1l0,0c0-7.79,6.31-14.1,14.1-14.1h124.77
				c7.79,0,14.1,6.31,14.1,14.1l0,0C1572.82,363.92,1566.51,370.23,1558.72,370.23z"/>
		</g>
	</g>
	<g>
		<path class="st5" d="M1733.13,1471l-36.62,23.27c-39.47,25.08-91.8,13.41-116.88-26.06l-18.13-28.54
			c-25.08-39.47-13.41-91.8,26.06-116.88l36.62-23.27c39.47-25.08,91.8-13.41,116.88,26.06l18.13,28.54
			C1784.27,1393.6,1772.61,1445.93,1733.13,1471z"/>
		<path class="st5" d="M1733.13,1249.82l-36.62,23.27c-39.47,25.08-91.8,13.41-116.88-26.06l-18.13-28.54
			c-25.08-39.47-13.41-91.8,26.06-116.88l36.62-23.27c39.47-25.08,91.8-13.41,116.88,26.06l18.13,28.54
			C1784.27,1172.42,1772.61,1224.74,1733.13,1249.82z"/>
		<path class="st5" d="M1733.13,1030.53l-36.62,23.27c-39.47,25.08-91.8,13.41-116.88-26.06l-18.13-28.54
			c-25.08-39.47-13.41-91.8,26.06-116.88l36.62-23.27c39.47-25.08,91.8-13.41,116.88,26.06l18.13,28.54
			C1784.27,953.12,1772.61,1005.45,1733.13,1030.53z"/>
		
			<ellipse transform="matrix(0.8869 -0.462 0.462 0.8869 -248.7115 886.389)" class="st15" cx="1685.76" cy="951.09" rx="32.66" ry="71.86"/>
		<path class="st15" d="M1709.46,1154.53c18.34,35.2,20.23,70.49,4.23,78.82s-43.83-13.44-62.17-48.64
			c-18.34-35.2-20.23-70.49-4.23-78.82C1663.29,1097.56,1691.13,1119.33,1709.46,1154.53z"/>
		<path class="st15" d="M1698.82,1376.86c18.34,35.2,18.1,71.59-0.52,81.3c-18.62,9.7-48.58-10.97-66.92-46.17
			c-18.34-35.2-18.1-71.59,0.52-81.3C1650.52,1320.99,1680.48,1341.66,1698.82,1376.86z"/>
	</g>
	<g>
		<path class="st5" d="M630.6,2080.88L471.21,1536.4c-13.88-36.58-11.59-77.33,6.28-112.14l210.24-409.42
			c23.38-45.53,83.86-55.97,121.15-20.91l0,0v318.44l-35.68,126.56l123.59,344.69L630.6,2080.88z"/>
		<path class="st15" d="M619.37,1149.53l77.15-150.24l24.96,46.32l-39.19,79.25C665.17,1140.72,642.71,1149.53,619.37,1149.53
			L619.37,1149.53z"/>
	</g>
	<g>
		<path class="st16" d="M1691.37,225.49l-34,34c-2.07,2.07-2.07,5.44,0,7.52c2.01,2,5.5,2,7.51,0l34-34.01c1-1,1.55-2.34,1.55-3.75
			c0-1.42-0.55-2.75-1.55-3.76c-1.03-1.04-2.4-1.55-3.76-1.55C1693.76,223.94,1692.4,224.46,1691.37,225.49z"/>
		<path class="st16" d="M1618.47,238.24v-42.06c0-2.93-2.38-5.31-5.31-5.31s-5.31,2.38-5.31,5.31v42.06c0,2.93,2.39,5.31,5.31,5.31
			S1618.47,241.17,1618.47,238.24z"/>
		<path class="st16" d="M1686.14,316.53h42.07c2.93,0,5.31-2.38,5.31-5.31s-2.38-5.31-5.31-5.31h-42.07c-2.93,0-5.31,2.38-5.31,5.31
			C1680.83,314.14,1683.21,316.53,1686.14,316.53z"/>
	</g>
	<g>
		<g>
			<defs>
				<rect id="SVGID_7_" x="809.31" y="786.22" width="992.45" height="728.48"/>
			</defs>
			<clipPath id="SVGID_8_">
				<use xlink:href="#SVGID_7_"  style="overflow:visible;"/>
			</clipPath>
			<path class="st17" d="M1573.82,1304.36H1373.1v93.12l-161-93.12H499.26c-27.35,0-49.52-22.17-49.52-49.52V724.67
				c0-27.35,22.17-49.52,49.52-49.52h1074.56c27.35,0,49.52,22.17,49.52,49.52v530.17
				C1623.34,1282.19,1601.17,1304.36,1573.82,1304.36z"/>
		</g>
	</g>
	<path class="st18" d="M1669.92,1223.4H1369.9l5.4,174.08l-167.32-174.08H595.37c-27.35,0-49.52-22.17-49.52-49.52V643.71
		c0-27.35,22.17-49.52,49.52-49.52h1074.56c27.35,0,49.52,22.17,49.52,49.52v530.17C1719.45,1201.23,1697.27,1223.4,1669.92,1223.4z
		"/>
	<g>
		<line class="st19" x1="643.18" y1="778.72" x2="1555.43" y2="778.72"/>
		<line class="st19" x1="643.18" y1="859.39" x2="1555.43" y2="859.39"/>
		<line class="st19" x1="643.18" y1="940.07" x2="1555.43" y2="940.07"/>
		<line class="st19" x1="643.88" y1="1020.74" x2="1367.45" y2="1020.74"/>
	</g>
	<g>
		<g>
			<path class="st20" d="M1671.13,779.41c-82.88,0-150.3-67.43-150.3-150.3s67.43-150.3,150.3-150.3
				c82.88,0,150.3,67.43,150.3,150.3S1754.01,779.41,1671.13,779.41z"/>
		</g>
		<path class="st11" d="M1640.21,687.73l-43.84-41.1c-9.4-8.81-9.4-23.73,0-32.54l0,0c8.58-8.04,21.93-8.04,30.51,0l20.75,19.46
			c4.4,4.13,11.26,4.13,15.66,0l65.03-60.96c8.58-8.04,21.93-8.04,30.51,0l0,0c9.4,8.81,9.4,23.73,0,32.54l-88.12,82.6
			C1662.14,695.78,1648.79,695.78,1640.21,687.73z"/>
	</g>
</g>
</svg>
