<?xml version="1.0" encoding="utf-8"?>
<!-- Generator: Adobe Illustrator 23.0.3, SVG Export Plug-In . SVG Version: 6.00 Build 0)  -->
<svg version="1.1" xmlns="http://www.w3.org/2000/svg" xmlns:xlink="http://www.w3.org/1999/xlink" x="0px" y="0px"
	 viewBox="0 0 500 500" style="enable-background:new 0 0 500 500;" xml:space="preserve">
<style type="text/css">
	.st0{fill:#1AD6C0;}
	.st1{opacity:0.52;fill:#FFFFFF;}
	.st2{fill:#1AD6D2;}
	.st3{fill:#A0DED3;}
	.st4{fill:#D68614;}
	.st5{fill:#FFFFFF;}
	.st6{fill:none;stroke:#A4D72E;stroke-width:10;stroke-miterlimit:10;}
	.st7{fill:#A4D72E;}
	.st8{opacity:0.16;fill:#7C8787;}
	.st9{fill:#FF9019;}
	.st10{fill:#FFC14F;}
	.st11{opacity:0.11;fill:#FF9019;}
	.st12{opacity:0.47;fill:#FF9019;}
	.st13{opacity:0.35;fill:#BD6709;}
	.st14{opacity:0.64;}
	.st15{fill:#FFFFFF;stroke:#FFFFFF;stroke-width:0.9236;stroke-miterlimit:10;}
</style>
<g id="Layer_1">
	<rect class="st0" width="500" height="500"/>
	<g>
		<path class="st1" d="M422.92,78.45h-12.1c-0.83,0-1.5-0.67-1.5-1.5c0-0.83,0.67-1.5,1.5-1.5h12.1c0.83,0,1.5,0.67,1.5,1.5
			C424.42,77.78,423.75,78.45,422.92,78.45z"/>
		<path class="st1" d="M75.11,153c-0.83,0-1.5-0.67-1.5-1.5v-10.35c0-0.83,0.67-1.5,1.5-1.5c0.83,0,1.5,0.67,1.5,1.5v10.35
			C76.61,152.33,75.93,153,75.11,153z"/>
		<path class="st1" d="M80.28,147.82H69.93c-0.83,0-1.5-0.67-1.5-1.5c0-0.83,0.67-1.5,1.5-1.5h10.35c0.83,0,1.5,0.67,1.5,1.5
			C81.78,147.15,81.11,147.82,80.28,147.82z"/>
		<path class="st1" d="M431.05,401.69c-0.83,0-1.5-0.67-1.5-1.5v-10.35c0-0.83,0.67-1.5,1.5-1.5c0.83,0,1.5,0.67,1.5,1.5v10.35
			C432.55,401.02,431.88,401.69,431.05,401.69z"/>
		<path class="st1" d="M436.23,396.51h-10.35c-0.83,0-1.5-0.67-1.5-1.5c0-0.83,0.67-1.5,1.5-1.5h10.35c0.83,0,1.5,0.67,1.5,1.5
			C437.73,395.84,437.05,396.51,436.23,396.51z"/>
		<path class="st1" d="M157.8,63c-2.76,0-5-2.24-5-5s2.24-5,5-5c2.76,0,5,2.24,5,5S160.55,63,157.8,63z M157.8,56c-1.1,0-2,0.9-2,2
			s0.9,2,2,2s2-0.9,2-2S158.9,56,157.8,56z"/>
		<path class="st1" d="M441.57,266.98c-2.76,0-5-2.24-5-5c0-2.76,2.24-5,5-5c2.76,0,5,2.24,5,5
			C446.57,264.74,444.33,266.98,441.57,266.98z M441.57,259.98c-1.1,0-2,0.9-2,2c0,1.1,0.9,2,2,2c1.1,0,2-0.9,2-2
			C443.57,260.88,442.68,259.98,441.57,259.98z"/>
		<path class="st1" d="M75.11,261c-1.72,0-3.12-1.4-3.12-3.12c0-1.72,1.4-3.12,3.12-3.12c1.72,0,3.12,1.4,3.12,3.12
			C78.22,259.6,76.82,261,75.11,261z"/>
		<path class="st1" d="M62.32,371.66c-2.24,0-4.07-1.83-4.07-4.07c0-2.25,1.83-4.07,4.07-4.07c2.24,0,4.07,1.83,4.07,4.07
			C66.39,369.83,64.56,371.66,62.32,371.66z M62.32,366.51c-0.59,0-1.07,0.48-1.07,1.07c0,0.59,0.48,1.07,1.07,1.07
			c0.59,0,1.07-0.48,1.07-1.07C63.39,367,62.91,366.51,62.32,366.51z"/>
		<path class="st1" d="M416.87,84.5c-0.83,0-1.5-0.67-1.5-1.5V70.9c0-0.83,0.67-1.5,1.5-1.5c0.83,0,1.5,0.67,1.5,1.5V83
			C418.37,83.83,417.7,84.5,416.87,84.5z"/>
	</g>
	<g>
		<path class="st1" d="M341.4,446.77v-12.1c0-0.83,0.67-1.5,1.5-1.5c0.83,0,1.5,0.67,1.5,1.5v12.1c0,0.83-0.67,1.5-1.5,1.5
			C342.07,448.27,341.4,447.59,341.4,446.77z"/>
		<path class="st1" d="M326.85,59.95c0-0.83,0.67-1.5,1.5-1.5h10.35c0.83,0,1.5,0.67,1.5,1.5c0,0.83-0.67,1.5-1.5,1.5h-10.35
			C327.52,61.45,326.85,60.78,326.85,59.95z"/>
		<path class="st1" d="M332.02,65.13V54.77c0-0.83,0.67-1.5,1.5-1.5c0.83,0,1.5,0.67,1.5,1.5v10.35c0,0.83-0.67,1.5-1.5,1.5
			C332.69,66.63,332.02,65.96,332.02,65.13z"/>
		<path class="st1" d="M98.16,425.89c0-0.83,0.67-1.5,1.5-1.5h10.35c0.83,0,1.5,0.67,1.5,1.5c0,0.83-0.67,1.5-1.5,1.5H99.66
			C98.83,427.39,98.16,426.72,98.16,425.89z"/>
		<path class="st1" d="M103.33,431.07v-10.35c0-0.83,0.67-1.5,1.5-1.5c0.83,0,1.5,0.67,1.5,1.5v10.35c0,0.83-0.67,1.5-1.5,1.5
			C104,432.57,103.33,431.9,103.33,431.07z"/>
		<path class="st1" d="M406.85,162.64c0-2.76,2.24-5,5-5s5,2.24,5,5s-2.24,5-5,5S406.85,165.4,406.85,162.64z M413.85,162.64
			c0-1.1-0.9-2-2-2s-2,0.9-2,2s0.9,2,2,2S413.85,163.74,413.85,162.64z"/>
		<path class="st1" d="M182.87,436.42c0-2.76,2.24-5,5-5c2.76,0,5,2.24,5,5c0,2.76-2.24,5-5,5
			C185.11,441.42,182.87,439.17,182.87,436.42z M189.87,436.42c0-1.1-0.9-2-2-2c-1.1,0-2,0.9-2,2c0,1.1,0.9,2,2,2
			C188.97,438.42,189.87,437.52,189.87,436.42z"/>
		<path class="st1" d="M248.85,69.95c0-1.72,1.4-3.12,3.12-3.12c1.72,0,3.12,1.4,3.12,3.12c0,1.72-1.4,3.12-3.12,3.12
			C250.24,73.07,248.85,71.67,248.85,69.95z"/>
		<path class="st1" d="M78.19,77.16c0-2.24,1.83-4.07,4.07-4.07c2.25,0,4.07,1.83,4.07,4.07c0,2.24-1.83,4.07-4.07,4.07
			C80.02,81.23,78.19,79.41,78.19,77.16z M83.33,77.16c0-0.59-0.48-1.07-1.07-1.07c-0.59,0-1.07,0.48-1.07,1.07s0.48,1.07,1.07,1.07
			C82.85,78.23,83.33,77.75,83.33,77.16z"/>
		<path class="st1" d="M335.35,440.72c0-0.83,0.67-1.5,1.5-1.5h12.1c0.83,0,1.5,0.67,1.5,1.5c0,0.83-0.67,1.5-1.5,1.5h-12.1
			C336.02,442.22,335.35,441.55,335.35,440.72z"/>
	</g>
</g>
<g id="Layer_2">
	<path class="st2" d="M397.23,376.85H161.55c-7.79,0-14.11-6.32-14.11-14.11V146.69h225.86c21.55,0,39.02,17.47,39.02,39.02v176.04
		C412.33,370.09,405.57,376.85,397.23,376.85z"/>
	<g>
		<path class="st3" d="M372.77,162.29v-15.6l0,0c0-14.69-8.52-26.6-19.02-26.6h-2.61c-10.5,0-27.74,11.91-27.74,26.6h-7.23h-75.64
			v147.18h120.44c6.52,0,11.81-5.29,11.81-11.81V162.29z"/>
	</g>
	<g>
		<g>
			<g>
				<polygon class="st4" points="234.98,312.7 122.44,215.32 348.28,215.32 				"/>
			</g>
		</g>
		<polygon class="st4" points="348.28,215.32 235.36,138.66 122.44,215.32 		"/>
		<g>
			<path class="st5" d="M352.99,120.08H168.03c-14.69,0-26.6,11.91-26.6,26.6l0,0v159.37v47.07h184.96v-47.07V146.69l0,0
				C326.39,132,338.3,120.08,352.99,120.08z"/>
			<g>
				<circle class="st6" cx="235.96" cy="196.55" r="45.92"/>
				<g>
					<g>
						<polygon class="st7" points="201.98,196.96 216.5,183.35 230.81,196.76 279.87,149.51 294.39,163.12 230.86,224.03 						"/>
						<path class="st5" d="M279.9,153.15l10.66,10l-59.72,57.25l-25-23.44l10.66-10l14.33,13.44L279.9,153.15 M279.85,145.87
							l-3.61,3.48l-45.45,43.78l-10.68-10.01l-3.61-3.38l-3.61,3.38l-10.66,10l-4.1,3.85l4.1,3.85l25,23.44l3.65,3.42l3.61-3.46
							l59.72-57.25l4.02-3.85l-4.06-3.81l-10.66-10L279.85,145.87L279.85,145.87z"/>
					</g>
				</g>
			</g>
		</g>
		<path class="st8" d="M141.42,233.56l39.74,22.65c32.75,18.67,72.77,19.31,106.11,1.7l39.12-20.67v5.14l-92.48,96.45l-92.8-101.59
			L141.42,233.56z"/>
		<polygon class="st9" points="235.35,308.02 122.44,215.32 122.44,360.36 348.28,360.36 348.28,215.32 		"/>
		<polygon class="st10" points="348.28,361.04 235.36,266.95 122.44,361.04 		"/>
		<path class="st11" d="M340.28,361.04l-19.24-10.73c-53.72-29.97-117.62-29.97-171.35,0l-19.24,10.73H340.28z"/>
	</g>
	<polygon class="st12" points="235.36,266.95 348.28,350.35 348.28,361.04 	"/>
	<polygon class="st13" points="326.39,233.29 326.39,200.45 348.28,215.32 	"/>
</g>
<g id="Layer_4">
	<g class="st14">
		<path class="st15" d="M135.68,114.12c-0.01,0.37-0.17,0.74-0.46,1.01c-0.59,0.55-1.51,0.51-2.05-0.08l-12.56-14.53
			c-0.55-0.59-0.51-1.51,0.08-2.05c0.59-0.55,1.51-0.51,2.05,0.08l12.56,14.53C135.57,113.37,135.7,113.75,135.68,114.12z"/>
		<path class="st15" d="M147.12,93.92l-0.85,14.4c0.08,0.8-0.51,1.51-1.31,1.58c-0.8,0.08-1.51-0.51-1.58-1.31l0.85-14.4
			c-0.08-0.8,0.51-1.51,1.31-1.58C146.34,92.53,147.05,93.12,147.12,93.92z"/>
		<path class="st15" d="M129.62,124.37c-0.22,0.77-1.02,1.22-1.79,1l-14-0.31c-0.77-0.22-1.22-1.02-1-1.79
			c0.22-0.77,1.02-1.22,1.79-1l14,0.31C129.39,122.8,129.84,123.6,129.62,124.37z"/>
	</g>
</g>
</svg>
