<?xml version="1.0" encoding="utf-8"?>
<!-- Generator: Adobe Illustrator 23.0.3, SVG Export Plug-In . SVG Version: 6.00 Build 0)  -->
<svg version="1.1" xmlns="http://www.w3.org/2000/svg" xmlns:xlink="http://www.w3.org/1999/xlink" x="0px" y="0px"
	 viewBox="0 0 500 500" style="enable-background:new 0 0 500 500;" xml:space="preserve">
<style type="text/css">
	.st0{fill:#06C49C;}
	.st1{filter:url(#Adobe_OpacityMaskFilter);}
	.st2{filter:url(#Adobe_OpacityMaskFilter_1_);}
	.st3{mask:url(#SVGID_1_);fill:url(#SVGID_2_);}
	.st4{opacity:0.14;fill:url(#SVGID_3_);}
	.st5{fill:#E6A665;}
	.st6{fill:#F7D6B4;}
	.st7{opacity:0.34;fill:#A86420;}
	.st8{opacity:0.55;fill:#E6A665;}
	.st9{fill:#393F40;}
	.st10{clip-path:url(#SVGID_8_);}
	.st11{clip-path:url(#SVGID_9_);}
	.st12{fill:#D4D4D9;}
	.st13{fill:#FEFEFF;}
	.st14{fill:#FFCC00;}
	.st15{opacity:0.85;fill:#301300;}
	.st16{opacity:0.1;clip-path:url(#SVGID_11_);fill:#E70013;}
	.st17{opacity:0.12;clip-path:url(#SVGID_9_);}
	.st18{fill:#FFFFFF;}
	.st19{opacity:0.77;fill:#4F6363;}
	.st20{opacity:0.12;}
	.st21{fill:#F1F1F2;}
	.st22{fill:#FCEEE3;}
	.st23{fill:#F5F5EB;}
</style>
<g id="Layer_1">
	<rect class="st0" width="500" height="500"/>
</g>
<g id="Layer_2">
	<defs>
		<filter id="Adobe_OpacityMaskFilter" filterUnits="userSpaceOnUse" x="132.24" y="77" width="367.76" height="423.16">
			<feFlood  style="flood-color:white;flood-opacity:1" result="back"/>
			<feBlend  in="SourceGraphic" in2="back" mode="normal"/>
		</filter>
	</defs>
	<mask maskUnits="userSpaceOnUse" x="132.24" y="77" width="367.76" height="423.16" id="SVGID_1_">
		<g class="st1">
			<defs>
				<filter id="Adobe_OpacityMaskFilter_1_" filterUnits="userSpaceOnUse" x="132.24" y="140.8" width="387.83" height="359.36">
					<feFlood  style="flood-color:white;flood-opacity:1" result="back"/>
					<feBlend  in="SourceGraphic" in2="back" mode="normal"/>
				</filter>
			</defs>
			<mask maskUnits="userSpaceOnUse" x="132.24" y="140.8" width="387.83" height="359.36" id="SVGID_1_">
				<g class="st2">
				</g>
			</mask>
			<linearGradient id="SVGID_2_" gradientUnits="userSpaceOnUse" x1="138.8221" y1="263.4916" x2="495.0323" y2="422.138">
				<stop  offset="0.3602" style="stop-color:#FFFFFF"/>
				<stop  offset="1" style="stop-color:#000000"/>
			</linearGradient>
			<polygon class="st3" points="520.07,500.16 366.79,140.8 132.24,401.86 166.77,500.16 			"/>
		</g>
	</mask>
	<linearGradient id="SVGID_3_" gradientUnits="userSpaceOnUse" x1="196.7183" y1="270.988" x2="536.3671" y2="422.2584">
		<stop  offset="0.3602" style="stop-color:#000000"/>
		<stop  offset="0.7946" style="stop-color:#231F20"/>
		<stop  offset="1" style="stop-color:#000000"/>
	</linearGradient>
	<polygon class="st4" points="500,453.11 304.33,77 132.24,401.86 168.11,500.16 500,500.16 	"/>
	<g>
		<g>
			<path class="st5" d="M146.76,286.54c0,0,47.16-78.33,51.96-74.67c4.8,3.66-1.28,87.72-1.28,87.72l-44.92,13.61L146.76,286.54z"/>
			<polygon class="st6" points="238.61,445.21 267.53,410.79 329.11,331.56 350.23,294.2 206.96,287.79 132.24,403.79 80.41,500 
				214.57,500 			"/>
		</g>
		<path class="st6" d="M344.67,135.37l-18.05,16.92c-8.19,7.67-21.04,7.26-28.72-0.93l0,0c-7.67-8.19-7.26-21.04,0.93-28.72
			l18.05-16.92c8.19-7.67,21.04-7.26,28.72,0.93v0C353.27,114.84,352.86,127.7,344.67,135.37z"/>
		<polygon class="st7" points="329.11,331.56 350.23,294.2 313.96,292.71 		"/>
		<path class="st8" d="M183.9,351.98l90.53,13.91c8.83,1.36,14.93,9.55,13.7,18.4l0,0l27.99-36.02L183.9,351.98z"/>
		<g>
			<g>
				<defs>
					<rect id="SVGID_4_" x="167.89" y="50.59" width="161.21" height="280.97"/>
				</defs>
				<clipPath id="SVGID_5_">
					<use xlink:href="#SVGID_4_"  style="overflow:visible;"/>
				</clipPath>
			</g>
		</g>
	</g>
	<g>
		<path class="st9" d="M315.47,356.79H181.76c-9,0-16.3-7.3-16.3-16.3V72.07c0-9,7.3-16.3,16.3-16.3h133.71c9,0,16.3,7.3,16.3,16.3
			V340.5C331.77,349.5,324.47,356.79,315.47,356.79z"/>
		<g>
			<defs>
				<rect id="SVGID_6_" x="173.06" y="88.79" width="151.1" height="232.92"/>
			</defs>
			<defs>
				<rect id="SVGID_7_" x="173.06" y="88.79" width="151.1" height="232.92"/>
			</defs>
			<use xlink:href="#SVGID_7_"  style="overflow:visible;fill:#404647;"/>
			<clipPath id="SVGID_8_">
				<use xlink:href="#SVGID_6_"  style="overflow:visible;"/>
			</clipPath>
			<clipPath id="SVGID_9_" class="st10">
				<use xlink:href="#SVGID_7_"  style="overflow:visible;"/>
			</clipPath>
			<g class="st11">
				<g>
					<rect x="278.87" y="174.15" class="st12" width="9.11" height="4.5"/>
					<rect x="275.86" y="178.19" class="st13" width="15.11" height="4.4"/>
					<path class="st13" d="M275.86,174.38h15.11v-6.88c0-24.27-19.74-44.01-44.01-44.01c-24.27,0-44.01,19.74-44.01,44.01v34.47
						h15.11V167.5c0-15.94,12.97-28.9,28.9-28.9c15.94,0,28.9,12.97,28.9,28.9V174.38z"/>
				</g>
				<path class="st14" d="M246.97,282.92L246.97,282.92c-27.51,0-49.82-22.3-49.82-49.82v-30.16c0-2.86,2.31-5.17,5.17-5.17h89.29
					c2.86,0,5.17,2.32,5.17,5.17v30.16C296.78,260.62,274.48,282.92,246.97,282.92z"/>
				<path class="st15" d="M257.7,228.94c0-5.93-4.81-10.74-10.74-10.74c-5.93,0-10.74,4.81-10.74,10.74c0,4.04,2.26,7.52,5.57,9.36
					v12.57c0,2.86,2.31,5.17,5.17,5.17c2.85,0,5.17-2.31,5.17-5.17V238.3C255.44,236.47,257.7,232.99,257.7,228.94z"/>
				<g>
					<defs>
						<path id="SVGID_10_" d="M296.78,201.71v31.4c0,27.51-22.3,49.82-49.82,49.82h0c-27.51,0-49.82-22.3-49.82-49.82v-31.4
							c0-2.17,1.76-3.94,3.94-3.94h1.87V167.5c0-25.26,21.4-45.63,47.03-43.91c22.62,1.52,41.62,20.39,41,45.46v5.33h-15.11v-6.88
							c0-15.94-12.97-28.9-28.9-28.9c-15.94,0-28.9,12.97-28.9,28.9v30.27H274h1.87h15.11h1.87
							C295.02,197.77,296.78,199.53,296.78,201.71z M275.86,182.61h15.11v-4.43h-15.11V182.61z"/>
					</defs>
					<clipPath id="SVGID_11_">
						<use xlink:href="#SVGID_10_"  style="overflow:visible;"/>
					</clipPath>
					<rect x="246.97" y="197.77" class="st16" width="49.82" height="85.15"/>
				</g>
			</g>
			<g class="st17">
				
					<rect x="213.7" y="46.52" transform="matrix(0.8895 0.4569 -0.4569 0.8895 117.266 -77.9653)" class="st18" width="12.33" height="313.99"/>
				
					<rect x="279.39" y="94.42" transform="matrix(0.8895 0.4569 -0.4569 0.8895 147.4896 -107.1686)" class="st18" width="31.95" height="313.99"/>
				
					<rect x="228.39" y="66.34" transform="matrix(0.8895 0.4569 -0.4569 0.8895 130.1022 -91.4273)" class="st18" width="51.46" height="313.99"/>
			</g>
		</g>
		<path class="st19" d="M262.58,76.25l-27.93,0.14c-1.43,0.01-2.59-1.15-2.59-2.58l0,0c0-1.43,1.16-2.6,2.58-2.6l27.94-0.14
			c1.43-0.01,2.59,1.15,2.59,2.58l0,0C265.17,75.08,264.01,76.25,262.58,76.25z"/>
		<path class="st19" d="M272.91,341.66l-48.6,0.14c-1.43,0.01-2.59-1.15-2.59-2.58l0,0c0-1.43,1.16-2.6,2.58-2.6l48.6-0.14
			c1.43-0.01,2.59,1.15,2.59,2.58l0,0C275.5,340.49,274.34,341.66,272.91,341.66z"/>
		<g class="st20">
			<path class="st21" d="M193.63,100.05h-12.48c-1.56,0-2.82-1.26-2.82-2.82l0,0c0-1.56,1.26-2.82,2.82-2.82h12.48
				c1.56,0,2.82,1.26,2.82,2.82l0,0C196.45,98.78,195.19,100.05,193.63,100.05z"/>
			<path class="st21" d="M205.44,100.05h-4.26c-1.56,0-2.82-1.26-2.82-2.82l0,0c0-1.56,1.26-2.82,2.82-2.82h4.26
				c1.56,0,2.82,1.26,2.82,2.82l0,0C208.26,98.78,206.99,100.05,205.44,100.05z"/>
			<path class="st21" d="M317.34,100.05h-10.95c-1.56,0-2.82-1.26-2.82-2.82l0,0c0-1.56,1.26-2.82,2.82-2.82h10.95
				c1.56,0,2.82,1.26,2.82,2.82l0,0C320.16,98.78,318.9,100.05,317.34,100.05z"/>
		</g>
	</g>
	<g>
		<path class="st6" d="M350.23,294.2l-7.32,4.65c-7.89,5.02-18.36,2.68-23.38-5.21l-3.63-5.71c-5.02-7.89-2.68-18.36,5.21-23.38
			l7.32-4.65c7.89-5.02,18.36-2.68,23.38,5.21l3.63,5.71C360.45,278.72,358.12,289.18,350.23,294.2z"/>
		<path class="st6" d="M350.23,249.96l-7.32,4.65c-7.89,5.02-18.36,2.68-23.38-5.21l-3.63-5.71c-5.02-7.89-2.68-18.36,5.21-23.38
			l7.32-4.65c7.89-5.02,18.36-2.68,23.38,5.21l3.63,5.71C360.45,234.48,358.12,244.95,350.23,249.96z"/>
		<path class="st6" d="M350.23,206.11l-7.32,4.65c-7.89,5.02-18.36,2.68-23.38-5.21l-3.63-5.71c-5.02-7.89-2.68-18.36,5.21-23.38
			l7.32-4.65c7.89-5.02,18.36-2.68,23.38,5.21l3.63,5.71C360.45,190.62,358.12,201.09,350.23,206.11z"/>
		
			<ellipse transform="matrix(0.8869 -0.462 0.462 0.8869 -49.3326 178.9432)" class="st22" cx="340.74" cy="190.21" rx="6.53" ry="14.37"/>
		<path class="st22" d="M345.49,230.91c3.67,7.04,4.05,14.1,0.85,15.76c-3.2,1.67-8.77-2.69-12.43-9.73
			c-3.67-7.04-4.05-14.1-0.85-15.76C336.26,219.51,341.83,223.87,345.49,230.91z"/>
		<path class="st22" d="M343.36,275.37c3.67,7.04,3.62,14.32-0.1,16.26c-3.72,1.94-9.72-2.19-13.38-9.23
			c-3.67-7.04-3.62-14.32,0.1-16.26C333.7,264.2,339.7,268.33,343.36,275.37z"/>
	</g>
	<g>
		<path class="st6" d="M129.72,416.18L97.84,307.28c-2.78-7.32-2.32-15.47,1.26-22.43l42.05-81.88c4.68-9.11,16.77-11.19,24.23-4.18
			l0,0v63.69l-7.14,25.31l24.72,68.94L129.72,416.18z"/>
		<path class="st22" d="M127.47,229.91l15.43-30.05l4.99,9.26l-7.84,15.85C136.63,228.14,132.14,229.91,127.47,229.91L127.47,229.91
			z"/>
	</g>
</g>
<g id="Layer_3">
	<g>
		<path class="st23" d="M346.3,40.27l-8.6,8.6c-0.52,0.52-0.52,1.38,0,1.9c0.51,0.51,1.39,0.51,1.9,0l8.6-8.6
			c0.25-0.25,0.39-0.59,0.39-0.95c0-0.36-0.14-0.7-0.39-0.95c-0.26-0.26-0.61-0.39-0.95-0.39C346.91,39.88,346.57,40.01,346.3,40.27
			z"/>
		<path class="st23" d="M327.86,43.49V32.85c0-0.74-0.6-1.34-1.34-1.34c-0.74,0-1.34,0.6-1.34,1.34v10.64c0,0.74,0.6,1.34,1.34,1.34
			C327.25,44.84,327.86,44.24,327.86,43.49z"/>
		<path class="st23" d="M344.98,63.31h10.64c0.74,0,1.34-0.6,1.34-1.34c0-0.74-0.6-1.34-1.34-1.34h-10.64
			c-0.74,0-1.34,0.6-1.34,1.34C343.64,62.7,344.24,63.31,344.98,63.31z"/>
	</g>
</g>
</svg>
