<svg width="128" height="128" xmlns="http://www.w3.org/2000/svg">

 <g>
  <title>background</title>
  <rect fill="none" id="canvas_background" height="402" width="582" y="-1" x="-1"/>
 </g>
 <g>
  <title>Layer 1</title>
  <path id="svg_1" fill="#3B97D3" d="m67.9,38.1c-0.6,-0.2 -1.2,-0.4 -1.8,-0.6l-3.4,3.2c2.3,0.5 4.3,1.3 6.2,2.2l-1,-4.8z"/>
  <path id="svg_2" fill="#3B97D3" d="m57,39.8l-2.1,-4.1c-0.4,0 -0.8,0 -1.2,0c-0.3,0 -0.6,0 -0.8,0l-2.3,4.1c1,-0.1 2,-0.1 3.1,-0.1c1.1,0 2.2,0 3.3,0.1z"/>
  <path id="svg_3" fill="#3B97D3" d="m19.9,56.5c-0.4,0.7 -0.8,1.4 -1.2,2l2.4,3.9c0.9,-1.9 2.1,-4.1 3.7,-6.4l-4.9,0.5z"/>
  <path id="svg_4" fill="#3B97D3" d="m41.5,37.7c-0.9,0.3 -1.7,0.6 -2.5,1l-0.8,4.8c2.1,-1.1 4.3,-2 6.6,-2.7l-3.3,-3.1z"/>
  <path id="svg_5" fill="#3B97D3" d="m33.4,46.7l-4.5,-1.3c-0.7,0.7 -1.4,1.4 -2.1,2.1l1.4,4.3c1.6,-1.9 3.4,-3.7 5.2,-5.1z"/>
  <path id="svg_6" fill="#3B97D3" d="m79.6,51.7l1.2,-4.7c-0.8,-0.8 -1.6,-1.6 -2.4,-2.4l-4.6,1.4c2.2,1.7 4.1,3.6 5.8,5.7z"/>
  <path id="svg_7" fill="#3B97D3" d="m120,72.3c-0.5,0.4 -1.1,0.6 -1.8,0.6c-0.2,0 -0.5,0 -0.7,-0.1l-0.1,0l-0.9,-0.3l-1.5,4.2c-0.2,0.5 -0.5,0.9 -0.9,1.2c2.7,-0.7 4.6,-2.9 5.9,-5.6z"/>
  <path id="svg_8" fill="#3B97D3" d="m122.1,57.9c-0.6,-0.5 -1.4,-0.6 -2.1,-0.2c-0.7,0.3 -1.1,1 -1.2,1.7c-0.1,1.6 -0.4,4.5 -1.1,7.3l1.2,0.3c0.7,0.2 1.4,0.7 1.8,1.3c0.2,0.3 0.9,-0.4 1.1,-1.1c0.1,1.5 0.1,3.4 -0.2,5.7c-1,7.3 -11,8.1 -21.9,8.4c-0.9,0 -1.8,0 -2.7,0.1c-3.5,0.1 -5.9,1 -7.3,2.7c-1.8,2.1 -1.4,4.8 -1.1,6.5c0.1,0.4 0.1,0.8 0.1,1l0,0.3c0,1.1 0,1.8 -0.6,2.4c-0.7,0.7 -2.8,1.9 -9,1.9c-10.3,0 -12.9,-3.5 -13,-4.8c-0.2,-1.8 0,-4.6 0,-4.6c0,-0.5 -0.2,-1.1 -0.5,-1.5c-0.4,-0.4 -0.9,-0.6 -1.5,-0.6l-14.4,0c-1.1,0 -2,0.9 -2,2l0,4.9c0,1.6 0,4.6 -10.7,4.6c-4.4,0 -11.8,-0.6 -11.8,-4.5l0,-6.7c0,-0.6 -0.3,-1.1 -0.7,-1.5c-0.4,-0.4 -1,-0.6 -1.6,-0.5c-3,0.5 -6.4,1 -9.4,1c-3.2,0 -5.4,-0.6 -6.5,-1.8c-0.9,-1 -1.3,-2.4 -1.1,-4.4c0.5,-7.3 8.3,-7.9 10.6,-7.9c0.2,0 0.2,0 0.3,0c0.9,0.1 1.8,-0.5 2,-1.4c0,0 0.2,-0.6 0.5,-1.4c-0.2,0 -3.8,-1.4 -3.9,-1.1c-6.2,0.3 -13,3.5 -13.6,11.6c-0.2,3.1 0.5,5.6 2.2,7.4c2,2 5.1,3 9.5,3c2.5,0 5.2,-0.3 7.7,-0.7l0,4.3c0,3.9 2.7,8.5 15.8,8.5c13,0 14.7,-4.6 14.7,-8.6l0,-2.9l10.3,0c0,1 0,2.1 0.1,3.1c0.1,0.9 1.2,8.4 17,8.4c6,0 9.8,-1 11.9,-3.1c1.8,-1.8 1.8,-4.1 1.8,-5.3l0,-0.2c0,-0.5 -0.1,-1.1 -0.2,-1.7c-0.2,-1.2 -0.4,-2.6 0.2,-3.3c0.6,-0.7 2.2,-1.2 4.4,-1.3c0.8,0 1.7,-0.1 2.6,-0.1c9.6,-0.2 24.2,-0.6 25.8,-11.8c1.5,-11.1 -3,-15 -3.5,-15.4z"/>
  <path id="svg_9" fill="#3B97D3" d="m110.8,78.4c-0.5,-0.2 -0.9,-0.6 -1.2,-1l-1.2,-1.9l-2.2,2.7c1,0.1 2.1,0.2 3.2,0.2c0.5,0 1,0 1.4,0z"/>
  <path id="svg_10" fill="#3B97D3" d="m100.8,76.8l-0.4,-3.9l-3,1.7c-0.3,0.2 -0.5,0.2 -0.8,0.3c1.3,0.9 2.7,1.6 4.2,2.1c0.1,-0.1 0.1,-0.1 0,-0.2z"/>
  <path id="svg_11" fill="#3B97D3" d="m93.1,71.2l1.1,-3.9c-0.2,-0.3 -0.5,-0.6 -0.7,-0.9l-4.2,0.9c1.1,1.8 2.4,3.3 3.7,4.7c0,-0.3 0,-0.5 0.1,-0.8z"/>
  <path id="svg_12" fill="#3B97D3" d="m88.3,57.4c-0.4,-0.6 -0.7,-1.2 -1.1,-1.8l-4.5,0.4c1.3,2 2.5,4 3.6,6l2,-4.6z"/>
  <path id="svg_13" fill="#ffffff" d="m103.8,77.5c-0.1,0 -0.2,0 -0.3,0c-0.4,-0.1 -0.7,-0.5 -0.7,-0.9l-0.7,-7l-5.7,3.2c-0.4,0.2 -0.8,0.2 -1.1,-0.1c-0.3,-0.2 -0.5,-0.7 -0.4,-1.1l2.2,-8.2l-8.6,1.9c-0.4,0.1 -0.7,-0.1 -1,-0.3c-0.2,-0.3 -0.3,-0.7 -0.1,-1l4.8,-10.9l-9.7,0.9c-0.3,0 -0.6,-0.1 -0.9,-0.4c-0.2,-0.2 -0.3,-0.6 -0.2,-0.9l3.2,-11.8l-12.3,3.4c-0.3,0.1 -0.6,0 -0.8,-0.1c-0.2,-0.1 -0.4,-0.4 -0.5,-0.7l-2.3,-11.2l-8.1,7.6c-0.2,0.2 -0.5,0.3 -0.9,0.3c-0.3,-0.1 -0.6,-0.3 -0.7,-0.5l-5,-10.2l-5.6,10.2c-0.1,0.3 -0.4,0.5 -0.7,0.5c-0.3,0 -0.6,0 -0.8,-0.3l-8.9,-8.1l-1.9,12.3c0,0.3 -0.2,0.5 -0.4,0.7c-0.2,0.2 -0.5,0.2 -0.8,0.1l-12,-3.4l3.5,11.1c0.1,0.3 0,0.6 -0.1,0.9c-0.3,0.3 -0.5,0.5 -0.8,0.5l-11.2,1l5.3,8.5c0.3,0.5 0.1,1.1 -0.3,1.4c-0.5,0.3 -1.1,0.1 -1.4,-0.3l-6.2,-9.9c-0.2,-0.3 -0.2,-0.7 0,-1c0.2,-0.3 0.5,-0.5 0.8,-0.6l11.5,-1l-3.7,-11.6c-0.1,-0.4 0,-0.7 0.2,-1s0.6,-0.4 1,-0.3l12.7,3.5l2.1,-13.1c0.1,-0.4 0.3,-0.7 0.7,-0.8c0.3,-0.1 0.7,0 1,0.2l9.2,8.5l5.9,-10.7c0.2,-0.3 0.5,-0.5 0.9,-0.5c0.4,0 0.7,0.2 0.9,0.5l5.4,10.6l8.4,-7.9c0.3,-0.2 0.6,-0.3 1,-0.2c0.3,0.1 0.6,0.4 0.7,0.8l2.5,12l13,-3.5c0.3,-0.1 0.7,0 1,0.3c0.3,0.3 0.4,0.6 0.3,1l-3.2,12.1l10.2,-1c0.4,0 0.7,0.1 0.9,0.4c0.2,0.3 0.2,0.7 0.1,1l-5,10.6l8.2,-1.8c0.3,-0.1 0.7,0 0.9,0.3c0.2,0.3 0.3,0.6 0.2,1l-2,7.5l4.9,-2.8c0.3,-0.2 0.7,-0.2 1,0c0.3,0.2 0.5,0.5 0.5,0.8l0.6,6l3.3,-4.2c0.2,-0.3 0.5,-0.4 0.8,-0.4c0.3,0 0.6,0.2 0.8,0.4l2.4,3.7l1.8,-4.9c0.2,-0.5 0.7,-0.7 1.2,-0.6l3.5,1c0.5,0.1 0.9,0.7 0.8,1.2c-0.1,0.5 -0.7,0.9 -1.2,0.8l-2.6,-0.8l-2.2,6c-0.1,0.4 -0.4,0.6 -0.8,0.7c-0.4,0 -0.7,-0.1 -1,-0.4l-2.8,-4.2l-4,5c-0.1,0.1 -0.4,0.2 -0.7,0.2z"/>
  <path id="svg_14" fill="#ffffff" d="m53.5,57.8c-3.6,0 -6.5,-2.9 -6.5,-6.5s2.9,-6.5 6.5,-6.5s6.5,2.9 6.5,6.5s-2.9,6.5 -6.5,6.5zm0,-11c-2.5,0 -4.5,2 -4.5,4.5s2,4.5 4.5,4.5s4.5,-2 4.5,-4.5s-2,-4.5 -4.5,-4.5z"/>
  <path id="svg_15" fill="#ffffff" d="m68.1,73c-2.7,0 -4.9,-2.2 -4.9,-4.9s2.2,-4.9 4.9,-4.9s4.9,2.2 4.9,4.9s-2.2,4.9 -4.9,4.9zm0,-7.8c-1.6,0 -2.9,1.3 -2.9,2.9s1.3,2.9 2.9,2.9s2.9,-1.3 2.9,-2.9s-1.3,-2.9 -2.9,-2.9z"/>
  <path id="svg_16" fill="#ffffff" d="m38.2,68c-2.2,0 -4,-1.8 -4,-4s1.8,-4 4,-4s4,1.8 4,4s-1.7,4 -4,4zm0,-6c-1.1,0 -2,0.9 -2,2s0.9,2 2,2s2,-0.9 2,-2s-0.8,-2 -2,-2z"/>
  <ellipse id="svg_17" ry="3" rx="2.6" fill="#ffffff" cy="78.1" cx="13.1"/>
 </g>
</svg>