<?xml version="1.0" ?><!DOCTYPE svg  PUBLIC '-//W3C//DTD SVG 1.1//EN'  'http://www.w3.org/Graphics/SVG/1.1/DTD/svg11.dtd'><svg enable-background="new 0 0 128 128" height="128px" id="Layer_1" version="1.1" viewBox="0 0 128 128" width="128px" xml:space="preserve" xmlns="http://www.w3.org/2000/svg" xmlns:xlink="http://www.w3.org/1999/xlink"><path d="M67.9,38.1c-0.6-0.2-1.2-0.4-1.8-0.6l-3.4,3.2c2.3,0.5,4.3,1.3,6.2,2.2L67.9,38.1z" fill="#3B97D3"/><path d="M57,39.8l-2.1-4.1c-0.4,0-0.8,0-1.2,0c-0.3,0-0.6,0-0.8,0l-2.3,4.1c1-0.1,2-0.1,3.1-0.1  C54.8,39.7,55.9,39.7,57,39.8z" fill="#3B97D3"/><path d="M19.9,56.5c-0.4,0.7-0.8,1.4-1.2,2l2.4,3.9c0.9-1.9,2.1-4.1,3.7-6.4L19.9,56.5z" fill="#3B97D3"/><path d="M41.5,37.7c-0.9,0.3-1.7,0.6-2.5,1l-0.8,4.8c2.1-1.1,4.3-2,6.6-2.7L41.5,37.7z" fill="#3B97D3"/><path d="M33.4,46.7l-4.5-1.3c-0.7,0.7-1.4,1.4-2.1,2.1l1.4,4.3C29.8,49.9,31.6,48.1,33.4,46.7z" fill="#3B97D3"/><path d="M79.6,51.7l1.2-4.7c-0.8-0.8-1.6-1.6-2.4-2.4L73.8,46C76,47.7,77.9,49.6,79.6,51.7z" fill="#3B97D3"/><path d="M120,72.3c-0.5,0.4-1.1,0.6-1.8,0.6c-0.2,0-0.5,0-0.7-0.1l-0.1,0l-0.9-0.3l-1.5,4.2  c-0.2,0.5-0.5,0.9-0.9,1.2C116.8,77.2,118.7,75,120,72.3z" fill="#3B97D3"/><path d="M122.1,57.9c-0.6-0.5-1.4-0.6-2.1-0.2c-0.7,0.3-1.1,1-1.2,1.7c-0.1,1.6-0.4,4.5-1.1,7.3l1.2,0.3  c0.7,0.2,1.4,0.7,1.8,1.3c0.2,0.3,0.9-0.4,1.1-1.1c0.1,1.5,0.1,3.4-0.2,5.7c-1,7.3-11,8.1-21.9,8.4c-0.9,0-1.8,0-2.7,0.1  c-3.5,0.1-5.9,1-7.3,2.7c-1.8,2.1-1.4,4.8-1.1,6.5c0.1,0.4,0.1,0.8,0.1,1l0,0.3c0,1.1,0,1.8-0.6,2.4c-0.7,0.7-2.8,1.9-9,1.9  c-10.3,0-12.9-3.5-13-4.8c-0.2-1.8,0-4.6,0-4.6c0-0.5-0.2-1.1-0.5-1.5c-0.4-0.4-0.9-0.6-1.5-0.6H49.7c-1.1,0-2,0.9-2,2v4.9  c0,1.6,0,4.6-10.7,4.6c-4.4,0-11.8-0.6-11.8-4.5V85c0-0.6-0.3-1.1-0.7-1.5c-0.4-0.4-1-0.6-1.6-0.5c-3,0.5-6.4,1-9.4,1  c-3.2,0-5.4-0.6-6.5-1.8c-0.9-1-1.3-2.4-1.1-4.4c0.5-7.3,8.3-7.9,10.6-7.9c0.2,0,0.2,0,0.3,0c0.9,0.1,1.8-0.5,2-1.4  c0,0,0.2-0.6,0.5-1.4c-0.2,0-3.8-1.4-3.9-1.1c-6.2,0.3-13,3.5-13.6,11.6c-0.2,3.1,0.5,5.6,2.2,7.4C6,87,9.1,88,13.5,88  c2.5,0,5.2-0.3,7.7-0.7v4.3c0,3.9,2.7,8.5,15.8,8.5c13,0,14.7-4.6,14.7-8.6v-2.9h10.3c0,1,0,2.1,0.1,3.1c0.1,0.9,1.2,8.4,17,8.4  c6,0,9.8-1,11.9-3.1c1.8-1.8,1.8-4.1,1.8-5.3l0-0.2c0-0.5-0.1-1.1-0.2-1.7c-0.2-1.2-0.4-2.6,0.2-3.3c0.6-0.7,2.2-1.2,4.4-1.3  c0.8,0,1.7-0.1,2.6-0.1c9.6-0.2,24.2-0.6,25.8-11.8C127.1,62.2,122.6,58.3,122.1,57.9z" fill="#3B97D3"/><path d="M110.8,78.4c-0.5-0.2-0.9-0.6-1.2-1l-1.2-1.9l-2.2,2.7c1,0.1,2.1,0.2,3.2,0.2  C109.9,78.4,110.4,78.4,110.8,78.4z" fill="#3B97D3"/><path d="M100.8,76.8l-0.4-3.9l-3,1.7c-0.3,0.2-0.5,0.2-0.8,0.3c1.3,0.9,2.7,1.6,4.2,2.1  C100.9,76.9,100.9,76.9,100.8,76.8z" fill="#3B97D3"/><path d="M93.1,71.2l1.1-3.9c-0.2-0.3-0.5-0.6-0.7-0.9l-4.2,0.9c1.1,1.8,2.4,3.3,3.7,4.7C93,71.7,93,71.5,93.1,71.2z" fill="#3B97D3"/><path d="M88.3,57.4c-0.4-0.6-0.7-1.2-1.1-1.8L82.7,56c1.3,2,2.5,4,3.6,6L88.3,57.4z" fill="#3B97D3"/><path d="M103.8,77.5c-0.1,0-0.2,0-0.3,0c-0.4-0.1-0.7-0.5-0.7-0.9l-0.7-7l-5.7,3.2c-0.4,0.2-0.8,0.2-1.1-0.1  c-0.3-0.2-0.5-0.7-0.4-1.1l2.2-8.2l-8.6,1.9c-0.4,0.1-0.7-0.1-1-0.3c-0.2-0.3-0.3-0.7-0.1-1l4.8-10.9L82.5,54  c-0.3,0-0.6-0.1-0.9-0.4c-0.2-0.2-0.3-0.6-0.2-0.9l3.2-11.8l-12.3,3.4c-0.3,0.1-0.6,0-0.8-0.1c-0.2-0.1-0.4-0.4-0.5-0.7l-2.3-11.2  l-8.1,7.6c-0.2,0.2-0.5,0.3-0.9,0.3c-0.3-0.1-0.6-0.3-0.7-0.5L54,29.5l-5.6,10.2c-0.1,0.3-0.4,0.5-0.7,0.5c-0.3,0-0.6,0-0.8-0.3  L38,31.8l-1.9,12.3c0,0.3-0.2,0.5-0.4,0.7c-0.2,0.2-0.5,0.2-0.8,0.1l-12-3.4l3.5,11.1c0.1,0.3,0,0.6-0.1,0.9  C26,53.8,25.8,54,25.5,54l-11.2,1l5.3,8.5c0.3,0.5,0.1,1.1-0.3,1.4c-0.5,0.3-1.1,0.1-1.4-0.3l-6.2-9.9c-0.2-0.3-0.2-0.7,0-1  c0.2-0.3,0.5-0.5,0.8-0.6L24,52.1l-3.7-11.6c-0.1-0.4,0-0.7,0.2-1s0.6-0.4,1-0.3l12.7,3.5l2.1-13.1c0.1-0.4,0.3-0.7,0.7-0.8  c0.3-0.1,0.7,0,1,0.2l9.2,8.5l5.9-10.7c0.2-0.3,0.5-0.5,0.9-0.5c0.4,0,0.7,0.2,0.9,0.5l5.4,10.6l8.4-7.9c0.3-0.2,0.6-0.3,1-0.2  c0.3,0.1,0.6,0.4,0.7,0.8l2.5,12l13-3.5c0.3-0.1,0.7,0,1,0.3c0.3,0.3,0.4,0.6,0.3,1l-3.2,12.1l10.2-1c0.4,0,0.7,0.1,0.9,0.4  c0.2,0.3,0.2,0.7,0.1,1L90.2,63l8.2-1.8c0.3-0.1,0.7,0,0.9,0.3c0.2,0.3,0.3,0.6,0.2,1l-2,7.5l4.9-2.8c0.3-0.2,0.7-0.2,1,0  c0.3,0.2,0.5,0.5,0.5,0.8l0.6,6l3.3-4.2c0.2-0.3,0.5-0.4,0.8-0.4c0.3,0,0.6,0.2,0.8,0.4l2.4,3.7l1.8-4.9c0.2-0.5,0.7-0.7,1.2-0.6  l3.5,1c0.5,0.1,0.9,0.7,0.8,1.2c-0.1,0.5-0.7,0.9-1.2,0.8l-2.6-0.8l-2.2,6c-0.1,0.4-0.4,0.6-0.8,0.7c-0.4,0-0.7-0.1-1-0.4l-2.8-4.2  l-4,5C104.4,77.4,104.1,77.5,103.8,77.5z" fill="#2C3E50"/><path d="M53.5,57.8c-3.6,0-6.5-2.9-6.5-6.5s2.9-6.5,6.5-6.5s6.5,2.9,6.5,6.5S57.1,57.8,53.5,57.8z M53.5,46.8  c-2.5,0-4.5,2-4.5,4.5s2,4.5,4.5,4.5s4.5-2,4.5-4.5S56,46.8,53.5,46.8z" fill="#2C3E50"/><path d="M68.1,73c-2.7,0-4.9-2.2-4.9-4.9s2.2-4.9,4.9-4.9s4.9,2.2,4.9,4.9S70.8,73,68.1,73z M68.1,65.2  c-1.6,0-2.9,1.3-2.9,2.9s1.3,2.9,2.9,2.9s2.9-1.3,2.9-2.9S69.7,65.2,68.1,65.2z" fill="#2C3E50"/><path d="M38.2,68c-2.2,0-4-1.8-4-4s1.8-4,4-4s4,1.8,4,4S40.5,68,38.2,68z M38.2,62c-1.1,0-2,0.9-2,2s0.9,2,2,2  s2-0.9,2-2S39.4,62,38.2,62z" fill="#2C3E50"/><ellipse cx="13.1" cy="78.1" fill="#2C3E50" rx="2.6" ry="3"/></svg>